<svg xmlns="http://www.w3.org/2000/svg" viewBox="0 0 100 100">
  <path fill="#4F46E5" d="M93.3,44.7h-9.9c-0.8-3.4-2.2-6.6-4.1-9.5l7-7c1.7-1.7,1.7-4.4,0-6.1l-6.1-6.1c-1.7-1.7-4.4-1.7-6.1,0l-7,7c-2.9-1.9-6.1-3.3-9.5-4.1v-9.9C57.6,4.1,53.6,0,48.7,0h-8.7c-4.9,0-8.9,4.1-8.9,9.1v9.9c-3.4,0.8-6.6,2.2-9.5,4.1l-7-7c-1.7-1.7-4.4-1.7-6.1,0l-6.1,6.1c-1.7,1.7-1.7,4.4,0,6.1l7,7c-1.9,2.9-3.3,6.1-4.1,9.5H5.4C2.4,44.7,0,48.7,0,53.6v8.7C0,67.2,2.4,71.2,5.4,71.2h9.9c0.8,3.4,2.2,6.6,4.1,9.5l-7,7c-1.7,1.7-1.7,4.4,0,6.1l6.1,6.1c1.7,1.7,4.4,1.7,6.1,0l7-7c2.9,1.9,6.1,3.3,9.5,4.1v9.9C39.8,95.9,43.8,100,48.7,100h8.7c4.9,0,8.9-4.1,8.9-9.1v-9.9c3.4-0.8,6.6-2.2,9.5-4.1l7,7c1.7,1.7,4.4,1.7,6.1,0l6.1-6.1c1.7-1.7,1.7-4.4,0-6.1l-7-7c1.9-2.9,3.3-6.1,4.1-9.5h9.9c3,0,5.4-4,5.4-8.9v-8.7C98.7,48.7,96.3,44.7,93.3,44.7z M48.7,68.8c-10.4,0-18.8-8.4-18.8-18.8S38.3,31.2,48.7,31.2S67.5,39.6,67.5,50S59.1,68.8,48.7,68.8z"/>
</svg>